<mxfile host="65bd71144e">
    <diagram id="nyjtPj7OFM1HAFx8XYWp" name="第 1 页">
        <mxGraphModel dx="2361" dy="1117" grid="0" gridSize="10" guides="1" tooltips="1" connect="1" arrows="1" fold="1" page="1" pageScale="1" pageWidth="827" pageHeight="1169" background="#ffffff" math="0" shadow="0">
            <root>
                <mxCell id="0"/>
                <mxCell id="1" parent="0"/>
                <mxCell id="3" value="&lt;font color=&quot;#000000&quot;&gt;user_data_generator&lt;/font&gt;" style="rounded=0;whiteSpace=wrap;html=1;fillColor=none;strokeColor=#000000;" parent="1" vertex="1">
                    <mxGeometry x="253" y="38" width="140" height="220" as="geometry"/>
                </mxCell>
                <mxCell id="7" value="" style="group" parent="1" vertex="1" connectable="0">
                    <mxGeometry x="123" y="98" width="130" height="30" as="geometry"/>
                </mxCell>
                <mxCell id="4" value="" style="endArrow=classic;html=1;strokeColor=#000000;" parent="7" edge="1">
                    <mxGeometry width="50" height="50" relative="1" as="geometry">
                        <mxPoint y="27" as="sourcePoint"/>
                        <mxPoint x="130" y="27" as="targetPoint"/>
                    </mxGeometry>
                </mxCell>
                <mxCell id="6" value="&lt;font color=&quot;#000000&quot;&gt;clk_user&lt;/font&gt;" style="text;html=1;strokeColor=none;fillColor=none;align=center;verticalAlign=middle;whiteSpace=wrap;rounded=0;" parent="7" vertex="1">
                    <mxGeometry x="30" width="60" height="30" as="geometry"/>
                </mxCell>
                <mxCell id="8" value="" style="group" parent="1" vertex="1" connectable="0">
                    <mxGeometry x="123" y="145" width="130" height="30" as="geometry"/>
                </mxCell>
                <mxCell id="9" value="" style="endArrow=classic;html=1;strokeColor=#000000;" parent="8" edge="1">
                    <mxGeometry width="50" height="50" relative="1" as="geometry">
                        <mxPoint y="27" as="sourcePoint"/>
                        <mxPoint x="130" y="27" as="targetPoint"/>
                    </mxGeometry>
                </mxCell>
                <mxCell id="10" value="&lt;font color=&quot;#000000&quot;&gt;reset&lt;/font&gt;" style="text;html=1;strokeColor=none;fillColor=none;align=center;verticalAlign=middle;whiteSpace=wrap;rounded=0;" parent="8" vertex="1">
                    <mxGeometry x="30" width="60" height="30" as="geometry"/>
                </mxCell>
                <mxCell id="11" value="" style="group" parent="1" vertex="1" connectable="0">
                    <mxGeometry x="393" y="53" width="160" height="30" as="geometry"/>
                </mxCell>
                <mxCell id="12" value="" style="endArrow=classic;html=1;strokeColor=#000000;" parent="11" edge="1">
                    <mxGeometry width="50" height="50" relative="1" as="geometry">
                        <mxPoint y="27" as="sourcePoint"/>
                        <mxPoint x="160" y="27" as="targetPoint"/>
                    </mxGeometry>
                </mxCell>
                <mxCell id="13" value="&lt;div style=&quot;font-family: monospace , &amp;#34;droid sans mono&amp;#34; , monospace , monospace ; line-height: 19px&quot;&gt;&lt;font color=&quot;#000000&quot; style=&quot;font-size: 12px&quot;&gt;user_tx_data_start&lt;/font&gt;&lt;/div&gt;" style="text;html=1;strokeColor=none;fillColor=none;align=center;verticalAlign=middle;whiteSpace=wrap;rounded=0;" parent="11" vertex="1">
                    <mxGeometry x="36.92307692307693" width="73.84615384615385" height="30" as="geometry"/>
                </mxCell>
                <mxCell id="14" value="" style="group" parent="1" vertex="1" connectable="0">
                    <mxGeometry x="393" y="90" width="160" height="30" as="geometry"/>
                </mxCell>
                <mxCell id="15" value="" style="endArrow=classic;html=1;strokeColor=#000000;" parent="14" edge="1">
                    <mxGeometry width="50" height="50" relative="1" as="geometry">
                        <mxPoint y="27" as="sourcePoint"/>
                        <mxPoint x="160" y="27" as="targetPoint"/>
                    </mxGeometry>
                </mxCell>
                <mxCell id="16" value="&lt;div style=&quot;font-family: monospace , &amp;#34;droid sans mono&amp;#34; , monospace , monospace ; line-height: 19px&quot;&gt;&lt;font color=&quot;#000000&quot; style=&quot;font-size: 12px&quot;&gt;user_tx_data_end&lt;/font&gt;&lt;/div&gt;" style="text;html=1;strokeColor=none;fillColor=none;align=center;verticalAlign=middle;whiteSpace=wrap;rounded=0;" parent="14" vertex="1">
                    <mxGeometry x="36.92307692307693" width="73.84615384615385" height="30" as="geometry"/>
                </mxCell>
                <mxCell id="22" value="" style="group" parent="1" vertex="1" connectable="0">
                    <mxGeometry x="393" y="130" width="160" height="30" as="geometry"/>
                </mxCell>
                <mxCell id="23" value="" style="endArrow=classic;html=1;strokeColor=#000000;strokeWidth=3;" parent="22" edge="1">
                    <mxGeometry width="50" height="50" relative="1" as="geometry">
                        <mxPoint y="27" as="sourcePoint"/>
                        <mxPoint x="160" y="27" as="targetPoint"/>
                    </mxGeometry>
                </mxCell>
                <mxCell id="24" value="&lt;div style=&quot;font-family: monospace , &amp;#34;droid sans mono&amp;#34; , monospace , monospace ; line-height: 19px&quot;&gt;&lt;font color=&quot;#000000&quot; style=&quot;font-size: 12px&quot;&gt;packetlength&lt;/font&gt;&lt;/div&gt;" style="text;html=1;strokeColor=none;fillColor=none;align=center;verticalAlign=middle;whiteSpace=wrap;rounded=0;" parent="22" vertex="1">
                    <mxGeometry x="36.92307692307693" width="73.84615384615385" height="30" as="geometry"/>
                </mxCell>
                <mxCell id="25" value="" style="group;strokeWidth=11;" parent="1" vertex="1" connectable="0">
                    <mxGeometry x="393" y="173" width="160" height="30" as="geometry"/>
                </mxCell>
                <mxCell id="26" value="" style="endArrow=classic;html=1;strokeColor=#000000;strokeWidth=3;" parent="25" edge="1">
                    <mxGeometry width="50" height="50" relative="1" as="geometry">
                        <mxPoint y="27" as="sourcePoint"/>
                        <mxPoint x="160" y="27" as="targetPoint"/>
                    </mxGeometry>
                </mxCell>
                <mxCell id="27" value="&lt;div style=&quot;font-family: monospace , &amp;#34;droid sans mono&amp;#34; , monospace , monospace ; line-height: 19px&quot;&gt;&lt;font color=&quot;#000000&quot; style=&quot;font-size: 12px&quot;&gt;user_tx_data&lt;/font&gt;&lt;/div&gt;" style="text;html=1;strokeColor=none;fillColor=none;align=center;verticalAlign=middle;whiteSpace=wrap;rounded=0;" parent="25" vertex="1">
                    <mxGeometry x="36.92307692307693" width="73.84615384615385" height="30" as="geometry"/>
                </mxCell>
                <mxCell id="28" value="" style="group" parent="1" vertex="1" connectable="0">
                    <mxGeometry x="393" y="203" width="160" height="30" as="geometry"/>
                </mxCell>
                <mxCell id="29" value="" style="endArrow=classic;html=1;strokeColor=#000000;" parent="28" edge="1">
                    <mxGeometry width="50" height="50" relative="1" as="geometry">
                        <mxPoint y="27" as="sourcePoint"/>
                        <mxPoint x="160" y="27" as="targetPoint"/>
                    </mxGeometry>
                </mxCell>
                <mxCell id="30" value="&lt;div style=&quot;font-family: monospace , &amp;#34;droid sans mono&amp;#34; , monospace , monospace ; line-height: 19px&quot;&gt;&lt;font color=&quot;#000000&quot; style=&quot;font-size: 12px&quot;&gt;user_tx_data_valid&lt;/font&gt;&lt;/div&gt;" style="text;html=1;strokeColor=none;fillColor=none;align=center;verticalAlign=middle;whiteSpace=wrap;rounded=0;" parent="28" vertex="1">
                    <mxGeometry x="36.92307692307693" width="73.84615384615385" height="30" as="geometry"/>
                </mxCell>
                <mxCell id="50" style="edgeStyle=none;html=1;exitX=0.5;exitY=1;exitDx=0;exitDy=0;entryX=0;entryY=0.5;entryDx=0;entryDy=0;fontSize=14;fontColor=#000000;strokeColor=#000000;strokeWidth=3;" parent="1" source="33" target="34" edge="1">
                    <mxGeometry relative="1" as="geometry">
                        <Array as="points">
                            <mxPoint x="110" y="511"/>
                        </Array>
                    </mxGeometry>
                </mxCell>
                <mxCell id="33" value="" style="shape=orEllipse;perimeter=ellipsePerimeter;whiteSpace=wrap;html=1;backgroundOutline=1;labelBackgroundColor=none;fontSize=12;strokeColor=#10739e;strokeWidth=3;fillColor=#b1ddf0;" parent="1" vertex="1">
                    <mxGeometry x="84" y="373" width="48" height="50" as="geometry"/>
                </mxCell>
                <mxCell id="51" style="edgeStyle=none;html=1;exitX=1;exitY=0.5;exitDx=0;exitDy=0;entryX=0;entryY=0.5;entryDx=0;entryDy=0;fontSize=14;fontColor=#000000;strokeColor=#000000;strokeWidth=3;" parent="1" source="34" target="45" edge="1">
                    <mxGeometry relative="1" as="geometry"/>
                </mxCell>
                <mxCell id="34" value="&lt;font style=&quot;font-size: 14px&quot;&gt;D0&lt;/font&gt;" style="rounded=0;whiteSpace=wrap;html=1;labelBackgroundColor=none;fontSize=12;fontColor=#000000;strokeColor=#004C99;strokeWidth=3;fillColor=none;" parent="1" vertex="1">
                    <mxGeometry x="155" y="472" width="50" height="78" as="geometry"/>
                </mxCell>
                <mxCell id="36" value="" style="endArrow=classic;html=1;fontSize=12;fontColor=#000000;strokeColor=#000000;strokeWidth=3;entryX=0;entryY=0.5;entryDx=0;entryDy=0;" parent="1" target="33" edge="1">
                    <mxGeometry width="50" height="50" relative="1" as="geometry">
                        <mxPoint x="-27" y="398" as="sourcePoint"/>
                        <mxPoint x="86" y="388.58" as="targetPoint"/>
                    </mxGeometry>
                </mxCell>
                <mxCell id="54" style="edgeStyle=none;html=1;exitX=1;exitY=0.5;exitDx=0;exitDy=0;fontSize=14;fontColor=#000000;strokeColor=#000000;strokeWidth=3;" parent="1" source="38" edge="1">
                    <mxGeometry relative="1" as="geometry">
                        <mxPoint x="449.9411764705883" y="510.5882352941178" as="targetPoint"/>
                    </mxGeometry>
                </mxCell>
                <mxCell id="38" value="&lt;font style=&quot;font-size: 14px&quot;&gt;D1&lt;/font&gt;" style="rounded=0;whiteSpace=wrap;html=1;labelBackgroundColor=none;fontSize=12;fontColor=#000000;strokeColor=#004C99;strokeWidth=3;fillColor=none;" parent="1" vertex="1">
                    <mxGeometry x="338" y="472" width="50" height="78" as="geometry"/>
                </mxCell>
                <mxCell id="58" value="" style="edgeStyle=none;html=1;fontSize=14;fontColor=#000000;strokeColor=#000000;strokeWidth=3;entryX=0;entryY=0.5;entryDx=0;entryDy=0;" parent="1" source="39" target="40" edge="1">
                    <mxGeometry relative="1" as="geometry">
                        <mxPoint x="642.9999999999895" y="509.5" as="targetPoint"/>
                    </mxGeometry>
                </mxCell>
                <mxCell id="39" value="&lt;font style=&quot;font-size: 14px&quot;&gt;D2&lt;/font&gt;" style="rounded=0;whiteSpace=wrap;html=1;labelBackgroundColor=none;fontSize=12;fontColor=#000000;strokeColor=#004C99;strokeWidth=3;fillColor=none;" parent="1" vertex="1">
                    <mxGeometry x="546" y="472" width="50" height="78" as="geometry"/>
                </mxCell>
                <mxCell id="60" value="" style="edgeStyle=none;html=1;fontSize=14;fontColor=#000000;strokeColor=#000000;strokeWidth=3;" parent="1" source="40" target="41" edge="1">
                    <mxGeometry relative="1" as="geometry"/>
                </mxCell>
                <mxCell id="40" value="&lt;font style=&quot;font-size: 14px&quot;&gt;D3&lt;/font&gt;" style="rounded=0;whiteSpace=wrap;html=1;labelBackgroundColor=none;fontSize=12;fontColor=#000000;strokeColor=#004C99;strokeWidth=3;fillColor=none;" parent="1" vertex="1">
                    <mxGeometry x="657" y="472" width="50" height="78" as="geometry"/>
                </mxCell>
                <mxCell id="61" value="" style="edgeStyle=none;html=1;fontSize=14;fontColor=#000000;strokeColor=#000000;strokeWidth=3;" parent="1" source="41" target="42" edge="1">
                    <mxGeometry relative="1" as="geometry"/>
                </mxCell>
                <mxCell id="41" value="&lt;font style=&quot;font-size: 14px&quot;&gt;D4&lt;/font&gt;" style="rounded=0;whiteSpace=wrap;html=1;labelBackgroundColor=none;fontSize=12;fontColor=#000000;strokeColor=#004C99;strokeWidth=3;fillColor=none;" parent="1" vertex="1">
                    <mxGeometry x="748" y="472" width="50" height="78" as="geometry"/>
                </mxCell>
                <mxCell id="62" value="" style="edgeStyle=none;html=1;fontSize=14;fontColor=#000000;strokeColor=#000000;strokeWidth=3;" parent="1" source="42" target="43" edge="1">
                    <mxGeometry relative="1" as="geometry"/>
                </mxCell>
                <mxCell id="42" value="&lt;font style=&quot;font-size: 14px&quot;&gt;D5&lt;/font&gt;" style="rounded=0;whiteSpace=wrap;html=1;labelBackgroundColor=none;fontSize=12;fontColor=#000000;strokeColor=#004C99;strokeWidth=3;fillColor=none;" parent="1" vertex="1">
                    <mxGeometry x="834" y="473.5" width="50" height="78" as="geometry"/>
                </mxCell>
                <mxCell id="63" value="" style="edgeStyle=none;html=1;fontSize=14;fontColor=#000000;strokeColor=#000000;strokeWidth=3;" parent="1" source="43" target="44" edge="1">
                    <mxGeometry relative="1" as="geometry"/>
                </mxCell>
                <mxCell id="43" value="&lt;font style=&quot;font-size: 14px&quot;&gt;D6&lt;/font&gt;" style="rounded=0;whiteSpace=wrap;html=1;labelBackgroundColor=none;fontSize=12;fontColor=#000000;strokeColor=#004C99;strokeWidth=3;fillColor=none;" parent="1" vertex="1">
                    <mxGeometry x="934" y="473.5" width="50" height="78" as="geometry"/>
                </mxCell>
                <mxCell id="64" style="edgeStyle=none;html=1;fontSize=14;fontColor=#000000;strokeColor=#000000;strokeWidth=3;entryX=1;entryY=0.5;entryDx=0;entryDy=0;exitX=1;exitY=0.5;exitDx=0;exitDy=0;" parent="1" source="44" target="33" edge="1">
                    <mxGeometry relative="1" as="geometry">
                        <mxPoint x="593" y="235" as="targetPoint"/>
                        <Array as="points">
                            <mxPoint x="1153" y="513"/>
                            <mxPoint x="1153" y="398"/>
                        </Array>
                    </mxGeometry>
                </mxCell>
                <mxCell id="44" value="&lt;font style=&quot;font-size: 14px&quot;&gt;D7&lt;/font&gt;" style="rounded=0;whiteSpace=wrap;html=1;labelBackgroundColor=none;fontSize=12;fontColor=#000000;strokeColor=#004C99;strokeWidth=3;fillColor=none;" parent="1" vertex="1">
                    <mxGeometry x="1034" y="473.5" width="51" height="78" as="geometry"/>
                </mxCell>
                <mxCell id="52" style="edgeStyle=none;html=1;exitX=0.5;exitY=1;exitDx=0;exitDy=0;entryX=0.5;entryY=1;entryDx=0;entryDy=0;fontSize=14;fontColor=#000000;strokeColor=#000000;strokeWidth=3;" parent="1" source="33" target="45" edge="1">
                    <mxGeometry relative="1" as="geometry">
                        <Array as="points">
                            <mxPoint x="110" y="582"/>
                            <mxPoint x="272" y="582"/>
                        </Array>
                    </mxGeometry>
                </mxCell>
                <mxCell id="53" style="edgeStyle=none;html=1;exitX=1;exitY=0.5;exitDx=0;exitDy=0;entryX=0;entryY=0.5;entryDx=0;entryDy=0;fontSize=14;fontColor=#000000;strokeColor=#000000;strokeWidth=3;" parent="1" source="45" target="38" edge="1">
                    <mxGeometry relative="1" as="geometry"/>
                </mxCell>
                <mxCell id="45" value="" style="shape=orEllipse;perimeter=ellipsePerimeter;whiteSpace=wrap;html=1;backgroundOutline=1;labelBackgroundColor=none;fontSize=12;strokeColor=#10739e;strokeWidth=3;fillColor=#b1ddf0;" parent="1" vertex="1">
                    <mxGeometry x="248" y="487" width="48" height="48" as="geometry"/>
                </mxCell>
                <mxCell id="55" style="edgeStyle=none;html=1;exitX=0.5;exitY=1;exitDx=0;exitDy=0;entryX=0.5;entryY=1;entryDx=0;entryDy=0;fontSize=14;fontColor=#000000;strokeColor=#000000;strokeWidth=3;" parent="1" source="33" target="47" edge="1">
                    <mxGeometry relative="1" as="geometry">
                        <Array as="points">
                            <mxPoint x="110" y="582"/>
                            <mxPoint x="475" y="582"/>
                        </Array>
                    </mxGeometry>
                </mxCell>
                <mxCell id="57" value="" style="edgeStyle=none;html=1;fontSize=14;fontColor=#000000;strokeColor=#000000;strokeWidth=3;" parent="1" source="47" target="39" edge="1">
                    <mxGeometry relative="1" as="geometry"/>
                </mxCell>
                <mxCell id="47" value="" style="shape=orEllipse;perimeter=ellipsePerimeter;whiteSpace=wrap;html=1;backgroundOutline=1;labelBackgroundColor=none;fontSize=12;strokeColor=#10739e;strokeWidth=3;fillColor=#b1ddf0;" parent="1" vertex="1">
                    <mxGeometry x="451" y="487" width="48" height="48" as="geometry"/>
                </mxCell>
                <mxCell id="65" value="&lt;font color=&quot;#000000&quot;&gt;add_crc&lt;/font&gt;" style="rounded=0;whiteSpace=wrap;html=1;fillColor=none;strokeColor=#000000;" parent="1" vertex="1">
                    <mxGeometry x="187" y="758" width="140" height="220" as="geometry"/>
                </mxCell>
                <mxCell id="66" value="" style="group" parent="1" vertex="1" connectable="0">
                    <mxGeometry x="57" y="788" width="130" height="30" as="geometry"/>
                </mxCell>
                <mxCell id="67" value="" style="endArrow=classic;html=1;strokeColor=#000000;" parent="66" edge="1">
                    <mxGeometry width="50" height="50" relative="1" as="geometry">
                        <mxPoint y="27" as="sourcePoint"/>
                        <mxPoint x="130" y="27" as="targetPoint"/>
                    </mxGeometry>
                </mxCell>
                <mxCell id="68" value="&lt;font color=&quot;#000000&quot;&gt;clk_user&lt;/font&gt;" style="text;html=1;strokeColor=none;fillColor=none;align=center;verticalAlign=middle;whiteSpace=wrap;rounded=0;" parent="66" vertex="1">
                    <mxGeometry x="30" width="60" height="30" as="geometry"/>
                </mxCell>
                <mxCell id="69" value="" style="group" parent="1" vertex="1" connectable="0">
                    <mxGeometry x="57" y="818" width="130" height="30" as="geometry"/>
                </mxCell>
                <mxCell id="70" value="" style="endArrow=classic;html=1;strokeColor=#000000;" parent="69" edge="1">
                    <mxGeometry width="50" height="50" relative="1" as="geometry">
                        <mxPoint y="27" as="sourcePoint"/>
                        <mxPoint x="130" y="27" as="targetPoint"/>
                    </mxGeometry>
                </mxCell>
                <mxCell id="71" value="&lt;font color=&quot;#000000&quot;&gt;reset&lt;/font&gt;" style="text;html=1;strokeColor=none;fillColor=none;align=center;verticalAlign=middle;whiteSpace=wrap;rounded=0;" parent="69" vertex="1">
                    <mxGeometry x="30" width="60" height="30" as="geometry"/>
                </mxCell>
                <mxCell id="75" value="" style="group" parent="1" vertex="1" connectable="0">
                    <mxGeometry x="327" y="810" width="160" height="30" as="geometry"/>
                </mxCell>
                <mxCell id="76" value="" style="endArrow=classic;html=1;strokeColor=#000000;" parent="75" edge="1">
                    <mxGeometry width="50" height="50" relative="1" as="geometry">
                        <mxPoint y="27" as="sourcePoint"/>
                        <mxPoint x="160" y="27" as="targetPoint"/>
                    </mxGeometry>
                </mxCell>
                <mxCell id="77" value="&lt;div style=&quot;font-family: monospace , &amp;#34;droid sans mono&amp;#34; , monospace , monospace ; line-height: 19px&quot;&gt;&lt;div style=&quot;font-family: monospace , &amp;#34;droid sans mono&amp;#34; , monospace , monospace ; font-size: 14px ; line-height: 19px&quot;&gt;&lt;font color=&quot;#000000&quot;&gt;crc_data_valid&lt;/font&gt;&lt;/div&gt;&lt;/div&gt;" style="text;html=1;strokeColor=none;fillColor=none;align=center;verticalAlign=middle;whiteSpace=wrap;rounded=0;" parent="75" vertex="1">
                    <mxGeometry x="36.92307692307693" width="73.84615384615385" height="30" as="geometry"/>
                </mxCell>
                <mxCell id="78" value="" style="group" parent="1" vertex="1" connectable="0">
                    <mxGeometry x="327" y="850" width="160" height="30" as="geometry"/>
                </mxCell>
                <mxCell id="79" value="" style="endArrow=classic;html=1;strokeColor=#000000;strokeWidth=3;" parent="78" edge="1">
                    <mxGeometry width="50" height="50" relative="1" as="geometry">
                        <mxPoint y="27" as="sourcePoint"/>
                        <mxPoint x="160" y="27" as="targetPoint"/>
                    </mxGeometry>
                </mxCell>
                <mxCell id="80" value="&lt;div style=&quot;font-family: monospace , &amp;#34;droid sans mono&amp;#34; , monospace , monospace ; line-height: 19px&quot;&gt;&lt;div style=&quot;font-family: monospace , &amp;#34;droid sans mono&amp;#34; , monospace , monospace ; font-size: 14px ; line-height: 19px&quot;&gt;&lt;font color=&quot;#000000&quot;&gt;crc_data&lt;/font&gt;&lt;/div&gt;&lt;/div&gt;" style="text;html=1;strokeColor=none;fillColor=none;align=center;verticalAlign=middle;whiteSpace=wrap;rounded=0;" parent="78" vertex="1">
                    <mxGeometry x="36.92307692307693" width="73.84615384615385" height="30" as="geometry"/>
                </mxCell>
                <mxCell id="81" value="" style="group;strokeWidth=11;" parent="1" vertex="1" connectable="0">
                    <mxGeometry x="27" y="862" width="160" height="30" as="geometry"/>
                </mxCell>
                <mxCell id="82" value="" style="endArrow=classic;html=1;strokeColor=#000000;strokeWidth=3;" parent="81" edge="1">
                    <mxGeometry width="50" height="50" relative="1" as="geometry">
                        <mxPoint y="27" as="sourcePoint"/>
                        <mxPoint x="160" y="27" as="targetPoint"/>
                    </mxGeometry>
                </mxCell>
                <mxCell id="83" value="&lt;div style=&quot;font-family: monospace , &amp;#34;droid sans mono&amp;#34; , monospace , monospace ; line-height: 19px&quot;&gt;&lt;div style=&quot;font-family: monospace , &amp;#34;droid sans mono&amp;#34; , monospace , monospace ; font-size: 14px ; line-height: 19px&quot;&gt;&lt;font color=&quot;#000000&quot;&gt;data_in&lt;/font&gt;&lt;/div&gt;&lt;/div&gt;" style="text;html=1;strokeColor=none;fillColor=none;align=center;verticalAlign=middle;whiteSpace=wrap;rounded=0;" parent="81" vertex="1">
                    <mxGeometry x="36.92307692307693" width="73.84615384615385" height="30" as="geometry"/>
                </mxCell>
                <mxCell id="84" value="" style="group" parent="1" vertex="1" connectable="0">
                    <mxGeometry x="27" y="892" width="160" height="30" as="geometry"/>
                </mxCell>
                <mxCell id="85" value="" style="endArrow=classic;html=1;strokeColor=#000000;" parent="84" edge="1">
                    <mxGeometry width="50" height="50" relative="1" as="geometry">
                        <mxPoint y="27" as="sourcePoint"/>
                        <mxPoint x="160" y="27" as="targetPoint"/>
                    </mxGeometry>
                </mxCell>
                <mxCell id="86" value="&lt;div style=&quot;font-family: monospace , &amp;#34;droid sans mono&amp;#34; , monospace , monospace ; line-height: 19px&quot;&gt;&lt;div style=&quot;font-family: monospace , &amp;#34;droid sans mono&amp;#34; , monospace , monospace ; font-size: 14px ; line-height: 19px&quot;&gt;&lt;font color=&quot;#000000&quot;&gt;crc_en&lt;/font&gt;&lt;/div&gt;&lt;/div&gt;" style="text;html=1;strokeColor=none;fillColor=none;align=center;verticalAlign=middle;whiteSpace=wrap;rounded=0;" parent="84" vertex="1">
                    <mxGeometry x="36.92307692307693" width="73.84615384615385" height="30" as="geometry"/>
                </mxCell>
            </root>
        </mxGraphModel>
    </diagram>
</mxfile>